<?xml version="1.0" encoding="UTF-8" standalone="no"?>
<!-- Created with Inkscape (http://www.inkscape.org/) -->

<svg
   width="3.5in"
   height="2in"
   viewBox="0 0 88.9 50.8"
   id="SVGRoot"
   version="1.1"
   inkscape:version="1.4 (86a8ad7, 2024-10-11)"
   sodipodi:docname="card.svg"
   xml:space="preserve"
   xmlns:inkscape="http://www.inkscape.org/namespaces/inkscape"
   xmlns:sodipodi="http://sodipodi.sourceforge.net/DTD/sodipodi-0.dtd"
   xmlns="http://www.w3.org/2000/svg"
   xmlns:svg="http://www.w3.org/2000/svg"><sodipodi:namedview
     inkscape:document-units="mm"
     inkscape:zoom="1"
     inkscape:cx="273"
     inkscape:cy="126.5"
     id="namedview1"
     pagecolor="#ffffff"
     bordercolor="#000000"
     borderopacity="0.25"
     inkscape:showpageshadow="2"
     inkscape:pageopacity="0.0"
     inkscape:pagecheckerboard="0"
     inkscape:deskcolor="#d1d1d1"
     inkscape:window-width="1823"
     inkscape:window-height="1177"
     inkscape:window-x="89"
     inkscape:window-y="2099"
     inkscape:window-maximized="1"
     inkscape:current-layer="layer2" /><defs
     id="defs1"><inkscape:path-effect
       effect="powermask"
       id="path-effect10"
       is_visible="true"
       lpeversion="1"
       uri="#mask-powermask-path-effect10"
       invert="false"
       hide_mask="false"
       background="true"
       background_color="#ffffffff" /><inkscape:path-effect
       effect="powermask"
       id="path-effect9"
       is_visible="true"
       lpeversion="1"
       uri="#mask-powermask-path-effect9"
       invert="false"
       hide_mask="false"
       background="true"
       background_color="#ffffffff" /><inkscape:path-effect
       effect="powermask"
       id="path-effect8"
       is_visible="true"
       lpeversion="1"
       uri="#mask-powermask-path-effect8"
       invert="false"
       hide_mask="false"
       background="true"
       background_color="#ffffffff" /><inkscape:path-effect
       effect="powermask"
       id="path-effect7"
       is_visible="true"
       lpeversion="1"
       uri="#mask-powermask-path-effect7"
       invert="false"
       hide_mask="false"
       background="true"
       background_color="#ffffffff" /><mask
       maskUnits="userSpaceOnUse"
       id="mask-powermask-path-effect10"><path
         id="mask-powermask-path-effect10_box"
         style="fill:#ffffff;fill-opacity:1"
         d="M -0.999,-0.9998217 H 512.99149 V 512.992 H -0.999 Z" /><ellipse
         style="fill:#000000;stroke:#000000;stroke-width:15.394"
         id="ellipse10"
         cx="-51.205982"
         cy="502.24286"
         rx="235.21648"
         ry="191.48947"
         transform="rotate(-90)" /></mask><filter
       id="mask-powermask-path-effect10_inverse"
       inkscape:label="filtermask-powermask-path-effect10"
       style="color-interpolation-filters:sRGB"
       height="100"
       width="100"
       x="-50"
       y="-50"><feColorMatrix
         id="mask-powermask-path-effect10_primitive1"
         values="1"
         type="saturate"
         result="fbSourceGraphic" /><feColorMatrix
         id="mask-powermask-path-effect10_primitive2"
         values="-1 0 0 0 1 0 -1 0 0 1 0 0 -1 0 1 0 0 0 1 0 "
         in="fbSourceGraphic" /></filter></defs><g
     inkscape:label="Layer 1"
     id="layer1"
     inkscape:groupmode="layer"
     transform="translate(-0.18708867,-1.4967094)"><g
       id="g1"
       transform="matrix(0.0652187,0,0,0.06404817,55.310152,8.485341)"><path
         fill="#75432e"
         d="m 383.446,131.739 2.512,-3.498 1.324,-1.843 c 0.506,-0.687 0.93,-1.349 1.684,-2.252 l 4.696,-5.782 c 1.757,-2.029 3.72,-4.059 5.776,-6.286 1.05,-1.09 2.231,-2.139 3.386,-3.246 l 1.772,-1.662 c 0.595,-0.561 1.192,-1.129 1.857,-1.65 2.609,-2.122 5.23,-4.391 8.204,-6.371 2.848,-2.125 6.013,-3.933 9.127,-5.8 3.234,-1.669 6.45,-3.395 9.79,-4.708 l 2.468,-1.037 c 0.82,-0.342 1.663,-0.597 2.488,-0.895 1.659,-0.556 3.284,-1.178 4.914,-1.641 l 4.811,-1.323 c 1.574,-0.415 3.128,-0.692 4.635,-1.025 l 2.231,-0.465 2.165,-0.338 c 1.42,-0.216 2.794,-0.44 4.11,-0.618 2.619,-0.251 5.042,-0.578 7.152,-0.675 2.111,-0.108 3.972,-0.264 5.47,-0.275 l 4.725,-0.084 0.216,-0.004 c 8.839,-0.157 16.131,6.882 16.288,15.721 0.157,8.839 -6.882,16.131 -15.721,16.288 -0.243,0.004 -0.542,0.001 -0.783,-0.005 l -3.76,-0.117 c -1.207,-0.058 -2.608,0.007 -4.256,0 -1.652,-0.018 -3.429,0.159 -5.425,0.228 l -3.032,0.303 -1.601,0.157 -1.611,0.258 c -1.084,0.188 -2.228,0.312 -3.352,0.552 l -3.436,0.751 c -1.168,0.258 -2.3,0.65 -3.485,0.967 -0.584,0.177 -1.193,0.31 -1.77,0.523 l -1.744,0.637 c -2.38,0.765 -4.653,1.884 -6.993,2.9 -2.237,1.226 -4.553,2.335 -6.669,3.78 -2.208,1.275 -4.202,2.881 -6.213,4.321 -0.512,0.346 -0.978,0.757 -1.444,1.16 l -1.392,1.187 c -0.912,0.795 -1.846,1.518 -2.692,2.319 -1.646,1.642 -3.304,3.178 -4.689,4.618 l -3.596,3.951 c -0.522,0.515 -1.108,1.334 -1.61,1.955 l -1.403,1.786 -2.663,3.389 -0.359,0.457 c -4.718,6.004 -13.41,7.046 -19.413,2.328 -5.839,-4.588 -6.967,-12.958 -2.689,-18.936 z"
         id="path1" /><path
         fill="#16992b"
         d="m 397.562,128.093 -0.331,-0.396 c -0.217,-0.261 -0.554,-0.652 -0.925,-1.147 -0.799,-0.986 -1.789,-2.476 -2.997,-4.219 -0.662,-0.782 -1.295,-1.593 -2.042,-2.435 l -1.033,-1.257 -1.169,-1.366 c -0.786,-0.915 -1.493,-1.874 -2.328,-2.774 -0.846,-0.897 -1.599,-1.817 -2.431,-2.666 -1.678,-1.703 -3.268,-3.271 -4.892,-4.612 -0.425,-0.333 -0.728,-0.687 -1.16,-0.998 -0.42,-0.314 -0.777,-0.636 -1.134,-0.951 -0.371,-0.311 -0.789,-0.614 -1.137,-0.923 l -0.519,-0.465 -0.565,-0.468 c -1.392,-1.251 -2.798,-2.608 -4.259,-4.296 -1.465,-1.674 -2.935,-3.682 -4.683,-6.023 a 148.454,148.454 0 0 1 -5.424,-7.884 c -1.883,-2.943 -3.76,-6.138 -5.446,-9.545 -1.709,-3.45 -3.222,-7 -4.407,-10.673 -0.6,-1.791 -1.084,-3.689 -1.518,-5.448 -0.391,-1.856 -0.734,-3.601 -0.955,-5.359 -0.439,-3.504 -0.536,-6.786 -0.267,-9.734 a 36.81,36.81 0 0 1 1.285,-7.556 c 0.144,-0.52 0.25,-0.994 0.41,-1.458 l 0.472,-1.299 c 0.281,-0.794 0.595,-1.479 0.826,-2.02 0.228,-0.54 0.466,-0.966 0.597,-1.242 l 0.214,-0.422 a 3.902,3.902 0 0 1 5.126,-1.773 l 0.296,0.138 1.622,0.758 c 1.035,0.484 2.391,1.214 4.116,2.025 l 1.338,0.629 1.373,0.684 c 0.482,0.229 1.005,0.452 1.529,0.68 l 1.529,0.728 6.774,2.989 c 0.558,0.267 1.18,0.529 1.789,0.791 l 1.793,0.817 c 1.261,0.56 2.442,1.126 3.723,1.743 2.482,1.215 5.119,2.595 7.753,4.198 2.696,1.612 5.445,3.518 8.259,5.761 a 74.64,74.64 0 0 1 8.559,8.064 c 2.824,3.1 5.662,6.762 8.048,10.928 2.393,4.146 4.403,8.802 5.614,13.688 1.236,4.845 1.726,9.824 1.423,14.428 -0.219,4.609 -1.279,8.816 -2.63,12.428 -0.301,0.913 -0.727,1.763 -1.124,2.594 a 45.764,45.764 0 0 1 -1.218,2.386 c -0.383,0.769 -0.865,1.48 -1.319,2.161 -0.442,0.683 -0.93,1.332 -1.374,1.952 -0.455,0.623 -0.933,1.197 -1.398,1.767 a 64.96,64.96 0 0 1 -1.417,1.641 c -0.993,1.017 -1.851,1.911 -2.718,2.671 a 29.292,29.292 0 0 1 -2.419,1.682 c -0.731,0.474 -1.372,0.873 -1.928,1.189 -0.53,0.322 -0.988,0.558 -1.287,0.72 l -0.455,0.244 a 4.483,4.483 0 0 1 -5.559,-1.075 z"
         id="path2" /><path
         fill="#ffd731"
         d="m 431.894,191.9 c -0.177,-3.112 -0.503,-5.747 -0.659,-7.44 -0.077,-0.845 -0.177,-1.54 -0.231,-1.989 l -0.087,-0.683 c -4.364,-33.744 -26.232,-64.405 -59.969,-78.23 l -0.637,-0.261 c -0.42,-0.169 -1.065,-0.447 -1.861,-0.74 -1.594,-0.591 -4.054,-1.59 -7.014,-2.569 -6.105,-2.2 -14.631,-4.869 -24.883,-7.483 a 332.052,332.052 0 0 0 -35.069,-6.938 c -12.887,-1.825 -26.749,-3.001 -40.937,-3.065 -14.195,-0.074 -28.737,0.938 -43.142,3.281 -14.414,2.331 -28.671,6.02 -42.472,11.071 a 212.948,212.948 0 0 0 -39.596,19.433 c -12.535,7.856 -24.304,17.095 -35.193,27.483 a 253.911,253.911 0 0 0 -30.041,34.205 c -9.072,12.374 -17.088,25.741 -24.056,39.707 -6.939,14.004 -12.767,28.687 -17.506,43.639 -4.741,14.95 -8.381,30.182 -11.033,45.167 -2.594,15.06 -4.313,29.726 -5.212,43.538 a 424.517,424.517 0 0 0 -0.822,37.738 l 0.262,7.973 0.435,7.298 0.195,3.271 c 0.058,1.042 0.118,2.047 0.224,3.069 l 0.255,2.802 -4.095,5.847 c -3.737,5.414 -4.96,12.598 -2.544,19.253 3.966,10.924 16.037,16.565 26.961,12.599 l 6.71,-2.436 2.64,0.974 c 0.96,0.367 1.915,0.687 2.906,1.013 l 3.108,1.038 6.935,2.316 7.632,2.324 a 424.196,424.196 0 0 0 36.656,9.008 c 13.572,2.719 28.18,4.868 43.398,6.275 15.16,1.332 30.815,1.773 46.483,1.077 15.67,-0.693 31.363,-2.507 46.688,-5.571 15.296,-3.101 30.286,-7.37 44.592,-12.917 a 253.799,253.799 0 0 0 40.833,-20.125 c 12.859,-7.817 24.838,-16.783 35.681,-26.847 a 212.912,212.912 0 0 0 29.051,-33.19 c 8.463,-12.016 15.728,-24.825 21.723,-38.139 6.004,-13.302 10.758,-27.082 14.374,-40.809 3.623,-13.718 6.088,-27.409 7.673,-40.328 a 332.263,332.263 0 0 0 2.409,-35.668 c 0.136,-10.578 -0.226,-19.504 -0.765,-25.971 z"
         id="path3" /><path
         fill="#ffe9ab"
         d="m 212.086,169.638 c -11.605,0 -22.524,-7.105 -26.828,-18.615 -5.54,-14.814 1.979,-31.314 16.793,-36.854 28.252,-10.565 59.224,-11.999 87.208,-4.039 15.213,4.328 24.037,20.168 19.71,35.381 -4.327,15.213 -20.168,24.038 -35.38,19.71 -16.311,-4.64 -34.592,-3.718 -51.476,2.596 a 28.6,28.6 0 0 1 -10.027,1.821 z"
         id="path4" /><path
         fill="#56c140"
         d="m 470.917,296.125 c 0,0 -0.695,-0.855 -1.825,-2.439 -0.537,-0.789 -1.274,-1.77 -1.985,-2.908 l -0.574,-0.887 c -0.206,-0.292 -0.465,-0.493 -0.706,-0.748 l -1.486,-1.468 c -1.039,-1.017 -2.061,-1.86 -3.35,-3.091 l -1.873,-1.728 -0.938,-0.861 c -0.337,-0.287 -0.701,-0.575 -1.056,-0.859 l -2.108,-1.697 c -0.371,-0.279 -0.67,-0.554 -1.063,-0.838 l -1.158,-0.839 -2.262,-1.65 -2.427,-1.664 c -1.518,-1.08 -3.361,-2.242 -4.975,-3.38 -0.389,-0.277 -0.895,-0.585 -1.331,-0.884 l -1.321,-0.912 a 144.751,144.751 0 0 1 -2.696,-1.877 c -0.929,-0.657 -1.868,-1.295 -2.754,-1.981 -0.964,-0.717 -1.968,-1.413 -2.906,-2.148 l -2.956,-2.304 a 173.403,173.403 0 0 1 -3.01,-2.472 136.27,136.27 0 0 1 -3.071,-2.658 153.008,153.008 0 0 1 -3.173,-2.9 137.84,137.84 0 0 1 -3.2,-3.113 c -1.073,-1.083 -2.121,-2.133 -3.222,-3.334 a 188.032,188.032 0 0 1 -3.236,-3.56 c -1.085,-1.278 -2.185,-2.554 -3.244,-3.863 -1.066,-1.261 -2.148,-2.728 -3.214,-4.111 -1.047,-1.41 -2.112,-2.809 -3.145,-4.366 -4.135,-5.932 -8.136,-12.75 -11.347,-20.133 -3.253,-7.322 -5.591,-15.566 -6.832,-23.757 a 156.892,156.892 0 0 1 -0.703,-6.186 c -0.177,-2.045 -0.181,-4.153 -0.211,-6.181 -0.105,-4.048 0.336,-8.107 0.821,-11.946 0.503,-3.847 1.539,-7.567 2.43,-11.043 a 162.535,162.535 0 0 1 1.811,-5.051 c 0.666,-1.627 1.267,-3.206 1.971,-4.715 1.53,-2.991 3.088,-5.76 4.696,-8.291 0.831,-1.256 1.72,-2.428 2.605,-3.556 a 69.791,69.791 0 0 1 2.617,-3.211 c 3.422,-4.066 7.284,-7.035 10.283,-9.404 3.321,-2.242 6.059,-3.798 8.076,-4.775 0.972,-0.5 1.79,-0.845 2.335,-1.077 l 0.822,-0.35 a 7.011,7.011 0 0 1 8.597,2.582 l 0.277,0.422 0.491,0.743 c 0.327,0.489 0.821,1.214 1.371,2.11 1.178,1.816 2.661,4.351 4.431,7.327 l 2.974,4.724 c 1.017,1.642 2.004,3.357 3.204,5.07 1.187,1.721 2.276,3.457 3.438,5.179 a 209.907,209.907 0 0 1 3.646,5.061 l 1.919,2.427 c 0.615,0.798 1.187,1.589 1.805,2.365 l 1.909,2.27 c 0.625,0.745 1.122,1.49 1.806,2.209 1.295,1.445 2.326,2.859 3.587,4.266 l 0.851,1.054 c 0.275,0.354 0.511,0.7 0.837,1.059 a 41.51,41.51 0 0 1 1.702,2.148 c 2.29,2.919 4.261,5.977 6.499,9.612 l 0.774,1.362 c 0.282,0.478 0.583,0.947 0.846,1.436 l 0.802,1.463 c 0.245,0.491 0.508,0.993 0.818,1.518 a 96.18,96.18 0 0 1 1.696,3.156 c 0.575,1.089 1.221,2.222 1.793,3.356 a 296.747,296.747 0 0 0 1.838,3.522 l 1.861,3.697 c 0.657,1.272 1.271,2.571 1.893,3.861 0.65,1.35 1.31,2.71 1.93,4.079 l 1.91,4.24 a 225.398,225.398 0 0 1 1.867,4.395 189.451,189.451 0 0 1 3.535,9.277 147.177,147.177 0 0 1 1.609,4.87 c 0.508,1.649 0.999,3.231 1.456,4.973 0.471,1.694 0.86,3.4 1.273,5.056 0.415,1.729 0.737,3.491 1.065,5.193 0.158,0.864 0.331,1.674 0.466,2.558 l 0.359,2.644 c 0.23,1.756 0.461,3.406 0.574,5.163 0.247,3.536 0.404,6.815 0.233,10.21 -0.089,1.675 -0.115,3.249 -0.298,4.847 -0.208,1.626 -0.387,3.18 -0.65,4.69 -0.415,2.969 -1.263,5.896 -2.009,8.473 -0.202,0.651 -0.391,1.281 -0.602,1.901 a 47.076,47.076 0 0 1 -0.72,1.835 c -0.5,1.192 -0.958,2.314 -1.46,3.375 -0.897,2.035 -2.139,4.212 -3.165,5.916 -2.034,3.703 -4.156,5.179 -5.563,6.589 -1.434,1.317 -2.292,2.009 -2.292,2.009 -3.147,2.543 -7.748,2.071 -10.292,-1.076 z"
         id="path5" /></g><g
       id="g9"
       transform="matrix(0,0.06419171,-0.06355113,0,75.799981,3.0593633)"
       mask="url(#mask-powermask-path-effect10)"
       inkscape:path-effect="#path-effect10"><path
         style="fill:#ed5564"
         d="m 181.552,371.275 c 0,-2.828 -1.125,-5.546 -3.125,-7.546 l -30.171,-30.172 c -4.164,-4.171 -10.922,-4.171 -15.086,0 l -95.959,95.968 c -4.164,4.156 -4.164,10.906 0,15.078 l 30.171,30.171 c 4.164,4.155 10.921,4.155 15.085,0 l 95.959,-95.968 c 2.001,-1.999 3.126,-4.703 3.126,-7.531 z"
         id="path1-8"
         inkscape:original-d="m 181.552,371.275 c 0,-2.828 -1.125,-5.546 -3.125,-7.546 l -30.171,-30.172 c -4.164,-4.171 -10.922,-4.171 -15.086,0 l -95.959,95.968 c -4.164,4.156 -4.164,10.906 0,15.078 l 30.171,30.171 c 4.164,4.155 10.921,4.155 15.085,0 l 95.959,-95.968 c 2.001,-1.999 3.126,-4.703 3.126,-7.531 z" /><path
         style="fill:#ccd1d9"
         d="m 490.804,96.617 c 1.406,-1.414 2.391,-3.203 2.844,-5.148 l 18.078,-78.405 c 0.812,-3.586 -0.266,-7.336 -2.859,-9.938 -2.593,-2.602 -6.359,-3.68 -9.938,-2.852 l -78.404,18.062 c -1.953,0.453 -3.734,1.438 -5.141,2.852 L 140.717,295.84 c -4.164,4.172 -4.164,10.922 0,15.094 l 60.335,60.342 c 2,2 4.719,3.125 7.546,3.125 2.828,0 5.539,-1.125 7.539,-3.125 z"
         id="path2-8"
         inkscape:original-d="m 490.804,96.617 c 1.406,-1.414 2.391,-3.203 2.844,-5.148 l 18.078,-78.405 c 0.812,-3.586 -0.266,-7.336 -2.859,-9.938 -2.593,-2.602 -6.359,-3.68 -9.938,-2.852 l -78.404,18.062 c -1.953,0.453 -3.734,1.438 -5.141,2.852 L 140.717,295.84 c -4.164,4.172 -4.164,10.922 0,15.094 l 60.335,60.342 c 2,2 4.719,3.125 7.546,3.125 2.828,0 5.539,-1.125 7.539,-3.125 z" /><path
         style="opacity:0.2;fill:#ffffff;enable-background:new"
         d="m 508.866,3.126 c -2.594,-2.602 -6.359,-3.68 -9.938,-2.852 l -78.404,18.062 c -1.953,0.453 -3.734,1.438 -5.141,2.852 L 140.717,295.84 c -4.164,4.172 -4.164,10.922 0,15.094 l 60.335,60.342 c 2,2 4.719,3.125 7.546,3.125 2.828,0 5.539,-1.125 7.539,-3.125 L 490.804,96.617 c 1.406,-1.414 2.391,-3.203 2.844,-5.148 l 18.078,-78.405 c 0.812,-3.587 -0.266,-7.337 -2.86,-9.938 z M 501.319,10.665 483.257,89.07 208.598,363.729 148.256,303.386 422.915,28.735 Z"
         id="path3-2"
         inkscape:original-d="m 508.866,3.126 c -2.594,-2.602 -6.359,-3.68 -9.938,-2.852 l -78.404,18.062 c -1.953,0.453 -3.734,1.438 -5.141,2.852 L 140.717,295.84 c -4.164,4.172 -4.164,10.922 0,15.094 l 60.335,60.342 c 2,2 4.719,3.125 7.546,3.125 2.828,0 5.539,-1.125 7.539,-3.125 L 490.804,96.617 c 1.406,-1.414 2.391,-3.203 2.844,-5.148 l 18.078,-78.405 c 0.812,-3.587 -0.266,-7.337 -2.86,-9.938 z M 501.319,10.665 483.257,89.07 208.598,363.729 148.256,303.386 422.915,28.735 Z" /><path
         style="fill:#aab2bc"
         d="m 170.88,341.104 c -4.164,-4.172 -4.164,-10.921 0,-15.093 L 364.118,132.787 c 4.172,-4.164 10.922,-4.164 15.078,0 4.172,4.164 4.172,10.922 0,15.086 l -193.23,193.23 c -4.164,4.158 -10.914,4.158 -15.086,10e-4 z"
         id="path4-4"
         inkscape:original-d="m 170.88,341.104 c -4.164,-4.172 -4.164,-10.921 0,-15.093 L 364.118,132.787 c 4.172,-4.164 10.922,-4.164 15.078,0 4.172,4.164 4.172,10.922 0,15.086 l -193.23,193.23 c -4.164,4.158 -10.914,4.158 -15.086,10e-4 z" /><g
         id="g6">
	<path
   style="fill:#da4453"
   d="m 77.249,389.478 h 90.506 l 10.672,-10.672 c 2,-2 3.125,-4.703 3.125,-7.531 0,-1.078 -0.164,-2.125 -0.469,-3.125 H 98.584 Z"
   id="path5-5"
   inkscape:original-d="m 77.249,389.478 h 90.506 l 10.672,-10.672 c 2,-2 3.125,-4.703 3.125,-7.531 0,-1.078 -0.164,-2.125 -0.469,-3.125 H 98.584 Z" />
	<path
   style="fill:#da4453"
   d="M 143.842,413.4 H 53.328 l -16.117,16.125 c -1.484,1.484 -2.43,3.297 -2.859,5.203 h 88.155 z"
   id="path6"
   inkscape:original-d="M 143.842,413.4 H 53.328 l -16.117,16.125 c -1.484,1.484 -2.43,3.297 -2.859,5.203 h 88.155 z" />
</g><g
         id="g8">
	<path
   style="fill:#ffce54"
   d="M 253.848,393.9 118.084,258.138 c -4.164,-4.164 -10.914,-4.164 -15.078,0 l -22.632,22.624 c -4.164,4.172 -4.164,10.922 0,15.078 l 135.763,135.764 c 2,2 4.711,3.125 7.539,3.125 2.836,0 5.547,-1.125 7.547,-3.125 l 22.625,-22.625 c 4.163,-4.157 4.163,-10.922 0,-15.079 z"
   id="path7"
   inkscape:original-d="M 253.848,393.9 118.084,258.138 c -4.164,-4.164 -10.914,-4.164 -15.078,0 l -22.632,22.624 c -4.164,4.172 -4.164,10.922 0,15.078 l 135.763,135.764 c 2,2 4.711,3.125 7.539,3.125 2.836,0 5.547,-1.125 7.547,-3.125 l 22.625,-22.625 c 4.163,-4.157 4.163,-10.922 0,-15.079 z" />
	<path
   style="fill:#ffce54"
   d="m 85.327,469.321 c 0,-11.391 -4.438,-22.108 -12.492,-30.171 -16.64,-16.641 -43.702,-16.641 -60.342,0 -8.055,8.062 -12.492,18.78 -12.492,30.171 0,11.39 4.438,22.108 12.492,30.171 v 0 0 c 8.062,8.062 18.773,12.5 30.171,12.5 11.398,0 22.109,-4.438 30.171,-12.5 8.055,-8.062 12.492,-18.781 12.492,-30.171 z"
   id="path8"
   inkscape:original-d="m 85.327,469.321 c 0,-11.391 -4.438,-22.108 -12.492,-30.171 -16.64,-16.641 -43.702,-16.641 -60.342,0 -8.055,8.062 -12.492,18.78 -12.492,30.171 0,11.39 4.438,22.108 12.492,30.171 v 0 0 c 8.062,8.062 18.773,12.5 30.171,12.5 11.398,0 22.109,-4.438 30.171,-12.5 8.055,-8.062 12.492,-18.781 12.492,-30.171 z" />
</g><path
         style="fill:#f6bb42"
         id="ellipse8"
         sodipodi:type="arc"
         sodipodi:cx="42.664001"
         sodipodi:cy="469.31601"
         sodipodi:rx="10.664"
         sodipodi:ry="10.671"
         d="m 53.328001,469.31601 a 10.664,10.671 0 0 1 -10.664,10.671 10.664,10.671 0 0 1 -10.663999,-10.671 10.664,10.671 0 0 1 10.663999,-10.671 10.664,10.671 0 0 1 10.664,10.671 z" /></g></g><g
     inkscape:groupmode="layer"
     id="layer2"
     inkscape:label="Text"><text
       xml:space="preserve"
       style="font-style:normal;font-variant:normal;font-weight:normal;font-stretch:normal;font-size:6.91465px;font-family:Cambria;-inkscape-font-specification:'Cambria, Normal';font-variant-ligatures:normal;font-variant-caps:normal;font-variant-numeric:normal;font-variant-east-asian:normal;text-align:start;writing-mode:lr-tb;direction:ltr;text-anchor:start;fill:#000000;fill-opacity:1;stroke:#000000;stroke-width:0.196006;stroke-dasharray:none;stroke-opacity:1"
       x="-85.908714"
       y="31.737991"
       id="text11"
       transform="scale(0.68405254,1.461876)"><tspan
         sodipodi:role="line"
         id="tspan11"
         x="-85.908714"
         y="31.737991"
         dx="0 0 0 0 0 0 0.16333808"
         style="stroke-width:0.196006">LEMONSWORD.COM</tspan></text><text
       xml:space="preserve"
       style="font-style:normal;font-variant:normal;font-weight:normal;font-stretch:normal;font-size:7.85948px;font-family:'Ink Free';-inkscape-font-specification:'Ink Free, Normal';font-variant-ligatures:normal;font-variant-caps:normal;font-variant-numeric:normal;font-variant-east-asian:normal;text-align:center;writing-mode:lr-tb;direction:ltr;text-anchor:middle;fill:#000000;stroke:#000000;stroke-width:0.247034"
       x="2.7955194"
       y="8.3983479"
       id="text1-8"
       transform="scale(0.80063663,1.2490061)"><tspan
         sodipodi:role="line"
         id="tspan18"
         x="2.7955194"
         y="8.3983479"
         style="font-style:normal;font-variant:normal;font-weight:normal;font-stretch:normal;font-size:7.85948006px;font-family:'Ink Free';-inkscape-font-specification:'Ink Free, Normal';font-variant-ligatures:normal;font-variant-caps:normal;font-variant-numeric:normal;font-variant-east-asian:normal;text-align:start;text-anchor:start;fill:#000000;fill-opacity:1;stroke-width:0.247034">Erik Taylor</tspan><tspan
         sodipodi:role="line"
         id="tspan19"
         x="2.7955194"
         y="18.296532"
         style="font-style:normal;font-variant:normal;font-weight:normal;font-stretch:normal;font-size:7.85948006px;font-family:'Ink Free';-inkscape-font-specification:'Ink Free, Normal';font-variant-ligatures:normal;font-variant-caps:normal;font-variant-numeric:normal;font-variant-east-asian:normal;text-align:start;text-anchor:start;fill:#000000;fill-opacity:1;stroke-width:0.247034">CEO, Blacksmith</tspan><tspan
         sodipodi:role="line"
         id="tspan20"
         x="2.7955194"
         y="28.194717"
         style="font-style:normal;font-variant:normal;font-weight:normal;font-stretch:normal;font-size:7.85948006px;font-family:'Ink Free';-inkscape-font-specification:'Ink Free, Normal';font-variant-ligatures:normal;font-variant-caps:normal;font-variant-numeric:normal;font-variant-east-asian:normal;text-align:start;text-anchor:start;fill:#000000;fill-opacity:1;stroke-width:0.247034">970-239-1024</tspan><tspan
         sodipodi:role="line"
         id="tspan21"
         x="2.7955194"
         y="38.092907"
         style="font-style:normal;font-variant:normal;font-weight:normal;font-stretch:normal;font-size:7.85948006px;font-family:'Ink Free';-inkscape-font-specification:'Ink Free, Normal';font-variant-ligatures:normal;font-variant-caps:normal;font-variant-numeric:normal;font-variant-east-asian:normal;text-align:start;text-anchor:start;fill:#000000;fill-opacity:1;stroke-width:0.247034">erik@lemonsword.com</tspan></text></g></svg>
